Coordinates
version=1
nRows=11
nColumns=40
inDegrees=yes

Units are S.I. units (second, meters, Newtons, ...)
Angles are in degrees.

endheader
time	pelvis_tilt	pelvis_list	pelvis_rotation	pelvis_tx	pelvis_ty	pelvis_tz	hip_flexion_r	hip_adduction_r	hip_rotation_r	knee_angle_r	knee_angle_r_beta	ankle_angle_r	subtalar_angle_r	mtp_angle_r	hip_flexion_l	hip_adduction_l	hip_rotation_l	knee_angle_l	knee_angle_l_beta	ankle_angle_l	subtalar_angle_l	mtp_angle_l	lumbar_extension	lumbar_bending	lumbar_rotation	arm_flex_r	arm_add_r	arm_rot_r	elbow_flex_r	pro_sup_r	wrist_flex_r	wrist_dev_r	arm_flex_l	arm_add_l	arm_rot_l	elbow_flex_l	pro_sup_l	wrist_flex_l	wrist_dev_l
     52.12000000	     -4.70250440	     -3.94584920	      5.15204736	      1.04911098	      0.93059799	      0.52188662	     11.90884595	      0.94095879	    -16.07501430	     16.80811425	     16.80811425	     10.80566219	     -1.68759227	     -4.12950842	     30.30666262	    -11.30795036	      3.70715060	     49.49933859	     49.49933859	     11.26179472	    -18.20336154	     12.04970333	    -10.03861740	      4.68872316	      2.59468015	     18.07253617	    -19.37030989	      2.36727119	     55.01811503	     45.35887768	      0.00000000	      0.00000000	      2.54328384	    -10.45890846	     -3.47407914	     33.80364467	     45.30437417	      0.00000000	      0.00000000
     52.13271429	     -4.76132727	     -3.79101972	      5.79055258	      1.04723113	      0.93086869	      0.52165007	     11.56461555	      0.78475631	    -16.38726758	     16.59101933	     16.59101933	     10.94785101	     -1.97256709	     -4.13582190	     31.01247436	    -10.86504882	      3.64829093	     46.91244422	     46.91244422	     11.54491312	    -18.10826549	     12.06494346	    -10.15216873	      4.56217175	      2.44912029	     19.35301618	    -19.34272250	      2.27372929	     56.02734562	     45.33462389	      0.00000000	      0.00000000	      2.71595550	    -10.55607467	     -3.45407124	     33.65101455	     45.31275696	      0.00000000	      0.00000000
     52.14542857	     -4.80165454	     -3.67474843	      6.43465864	      1.04543162	      0.93108357	      0.52132612	     11.15254104	      0.69257938	    -16.68104559	     16.27926163	     16.27926163	     11.06475896	     -2.29012431	     -4.12456007	     31.49808108	    -10.39945137	      3.64294726	     44.01809989	     44.01809989	     11.57767497	    -17.97892115	     11.66785734	    -10.28000709	      4.52134765	      2.24537169	     20.54292648	    -19.38248928	      2.23051262	     57.62151089	     45.28813963	      0.00000000	      0.00000000	      2.85007987	    -10.63897913	     -3.48024576	     33.59133082	     45.33067746	      0.00000000	      0.00000000
     52.15814286	     -4.87928187	     -3.51426323	      7.01856199	      1.04360064	      0.93124772	      0.52101826	     10.82824577	      0.54036471	    -16.91668071	     16.05849553	     16.05849553	     11.19885047	     -2.59725480	     -4.12733803	     31.83079499	     -9.87575193	      3.59364294	     40.90922148	     40.90922148	     11.53713591	    -17.60829658	     11.44333271	    -10.39200445	      4.38486367	      2.23393305	     21.60963568	    -19.49607565	      2.18484259	     58.95653710	     45.25034355	      0.00000000	      0.00000000	      3.02767214	    -10.71762738	     -3.51470664	     33.64502113	     45.34642179	      0.00000000	      0.00000000
     52.17085714	     -4.95430353	     -3.42902346	      7.58533750	      1.04179799	      0.93120456	      0.52059260	     10.51660095	      0.46267916	    -17.16593427	     15.84813802	     15.84813802	     11.31614442	     -2.92518912	     -4.27542072	     31.99680247	     -9.41132452	      3.60178980	     37.56082931	     37.56082931	     10.52052503	    -17.30488891	      8.83780502	    -10.52986629	      4.37109429	      2.56419694	     21.93759656	    -20.15968067	      2.14790080	     62.05740884	     45.16302003	      0.00000000	      0.00000000	      3.39037120	    -10.64616229	     -3.65270466	     33.79259784	     45.41955337	      0.00000000	      0.00000000
     52.18357143	     -5.02550642	     -3.27557085	      8.09715445	      1.04000133	      0.93115761	      0.52007973	     10.25115185	      0.29486484	    -17.39337265	     15.75010142	     15.75010142	     11.49826846	     -3.22604678	     -4.29825249	     32.14900040	     -8.83012655	      3.72855621	     34.46489002	     34.46489002	     10.59718387	    -16.42943616	      8.99999762	    -10.62395466	      4.24673600	      2.46300663	     23.16262321	    -20.07289302	      2.03530020	     63.05005969	     45.14198872	      0.00000000	      0.00000000	      3.56596173	    -10.73495299	     -3.63096072	     33.78615066	     45.42616833	      0.00000000	      0.00000000
     52.19628571	     -5.12875769	     -3.15002028	      8.59320402	      1.03820513	      0.93097962	      0.51943488	     10.02842029	      0.14188350	    -17.61221200	     15.67402410	     15.67402410	     11.72642374	     -3.51105846	     -4.34501751	     32.30033872	     -8.28044760	      3.89952021	     31.45983077	     31.45983077	     10.55305543	    -15.26724547	      8.89485966	    -10.66113695	      4.20588056	      2.38229344	     24.27893100	    -20.06616569	      1.99578714	     64.45204956	     45.10533103	      0.00000000	      0.00000000	      3.69022692	    -10.77881103	     -3.65182028	     33.88022181	     45.44023437	      0.00000000	      0.00000000
     52.20900000	     -5.26006684	     -3.00462500	      9.01039314	      1.03644943	      0.93074513	      0.51874046	      9.86683279	     -0.04337393	    -17.78136634	     15.64618324	     15.64618324	     11.91327663	     -3.78752697	     -4.38184675	     32.42989927	     -7.76723944	      3.96397503	     28.60983593	     28.60983593	     10.55621341	    -13.78560667	      8.87566025	    -10.71617738	      4.05562325	      2.38492542	     25.26219483	    -20.04242730	      1.99497306	     65.61989612	     45.07365471	      0.00000000	      0.00000000	      3.89132384	    -10.83917352	     -3.68322986	     34.00695913	     45.45378946	      0.00000000	      0.00000000
     52.22171429	     -5.37096724	     -2.92991113	      9.39964150	      1.03480214	      0.93041457	      0.51799634	      9.67502565	     -0.13858025	    -17.92125152	     15.59787436	     15.59787436	     12.14340673	     -4.06652809	     -4.39644595	     32.57754562	     -7.39087343	      3.93293519	     26.01302032	     26.01302032	     10.34276770	    -12.01583830	      8.19961259	    -10.76022109	      4.03035286	      2.43946892	     25.92052486	    -20.16132608	      2.16446512	     67.83348737	     45.00780671	      0.00000000	      0.00000000	      4.01799608	    -10.86405554	     -3.84111787	     34.33231983	     45.49436883	      0.00000000	      0.00000000
     52.23442857	     -5.49870541	     -2.80157919	      9.74010402	      1.03322654	      0.93012269	      0.51713122	      9.51970333	     -0.31616626	    -18.02655063	     15.61819363	     15.61819363	     12.37473753	     -4.32235146	     -4.45532305	     32.67220290	     -6.94196130	      3.97237495	     23.61672458	     23.61672458	     10.28135022	    -10.46469753	      8.36393118	    -10.73064293	      3.90274834	      2.53257553	     26.89832625	    -20.03010550	      2.14497409	     68.62751353	     44.98919041	      0.00000000	      0.00000000	      4.25185025	    -10.88574317	     -3.84711234	     34.40709650	     45.50253265	      0.00000000	      0.00000000
     52.24714286	     -5.57784061	     -2.67943935	     10.04133538	      1.03176583	      0.92986768	      0.51619106	      9.28235524	     -0.46508506	    -18.11898540	     15.58858139	     15.58858139	     12.60654051	     -4.57397162	     -4.47792355	     32.74851593	     -6.58033800	      3.77809238	     21.58514560	     21.58514560	     10.18378562	     -8.79516718	      8.37441625	    -10.77449772	      3.78110105	      2.48511298	     27.82091176	    -19.73986371	      2.22169575	     69.78657745	     44.95593040	      0.00000000	      0.00000000	      4.45460018	    -10.97407557	     -3.88993643	     34.50791184	     45.51624506	      0.00000000	      0.00000000
